<?xml version="1.0" encoding="utf-8"?>
<?xml-stylesheet type="text/xsl" href="rss1.xsl"?>
<rss version="2.0" xmlns:atom="http://www.w3.org/2005/Atom" xmlns:content="http://purl.org/rss/1.0/modules/content/" xmlns:dc="http://purl.org/dc/elements/1.1/" xmlns:media="http://search.yahoo.com/mrss/">
<channel>
 <title>Getty</title>
 <link>http://www.gettyimg.com/</link>
 <atom:link href="http://www.gettyimg.com/" rel="self" type="application/rss+xml" />

 
                <item>
                <title><![CDATA[【Requests】[REQ AUD] - Alfie Templeman / Living in a universe]]></title>
                <link><![CDATA[https://sharemania.us/threads/alfie-templeman-living-in-a-universe.230479/]]></link>
                <description><![CDATA[<article>
<blockquote class="messageText SelectQuoteContainer ugc baseHtml">
<img src="styles/default/xenforo/smilies/nothing_to_say-48.png" class="mceSmilie" alt=":nothing to say:" title="Nothing to say    :nothing to say:"><img src="styles/default/xenforo/smilies/cry-48.png" class="mceSmilie" alt=":cry:" title="Cry    :cry:"><img src="styles/default/xenforo/smilies/cry-48.png" class="mceSmilie" alt=":cry:" title="Cry    :cry:"><img src="styles/default/xenforo/smilies/cry-48.png" class="mceSmilie" alt=":cry:" title="Cry    :cry:"><img src="styles/default/xenforo/smilies/cry-48.png" class="mceSmilie" alt=":cry:" title="Cry    :cry:"><br>
Please share This single!!!!!<br>
I can't find This!!!!!<img src="https://crazyminds.es/wp-content/uploads/a0397103424_16.jpg" class="bbCodeImage LbImage" alt="[​IMG]" data-url="https://crazyminds.es/wp-content/uploads/a0397103424_16.jpg" style=""> <br>
Thank u <img src="styles/default/xenforo/smilies/nothing_to_say-48.png" class="mceSmilie" alt=":nothing to say:" title="Nothing to say    :nothing to say:"><img src="styles/default/xenforo/smilies/nothing_to_say-48.png" class="mceSmilie" alt=":nothing to say:" title="Nothing to say    :nothing to say:"><img src="styles/default/xenforo/smilies/nothing_to_say-48.png" class="mceSmilie" alt=":nothing to say:" title="Nothing to say    :nothing to say:">
<div class="messageTextEndMarker">&nbsp;</div>
</blockquote>
</article>]]></description>
                <author><![CDATA[i0soyesterday]]></author>
                </item>

                
                <item>
                <title><![CDATA[【HD Live Performances】WEB-RiP - Shakira.Live.at.Glastonbury.2010.1080p.AMZN.WEB-DL.DDP2.0.H.264-mariellisaa]]></title>
                <link><![CDATA[https://sharemania.us/threads/shakira-live-at-glastonbury-2010-1080p-amzn-web-dl-ddp2-0-h-264-mariellisaa.230480/]]></link>
                <description><![CDATA[<article>
<blockquote class="messageText SelectQuoteContainer ugc baseHtml">
<div style="text-align: center"><span style="font-family: 'Times New Roman'"><img src="https://ichef.bbci.co.uk/images/ic/1200x675/p08hvstx.jpg" class="bbCodeImage LbImage" alt="[​IMG]" data-url="https://ichef.bbci.co.uk/images/ic/1200x675/p08hvstx.jpg" style=""> <br>
<img src="https://i.imgur.com/3tE5U92.jpg" class="bbCodeImage LbImage" alt="[​IMG]" data-url="https://i.imgur.com/3tE5U92.jpg" style=""><br>
</span>​</div>
<div class="ToggleTriggerAnchor bbCodeSpoilerContainer">
<button type="button" class="button bbCodeSpoilerButton ToggleTrigger Tooltip JsOnly" data-target="> .SpoilerTarget"><span>Spoiler: <span class="SpoilerTitle">MediaInfo</span></span></button>
<div class="SpoilerTarget bbCodeSpoilerText"><span style="font-family: 'Times New Roman'"><br>
General<br>
Complete name : D:\Shakira.Live.at.Glastonbury.2010.1080p.AMZN.WEB-DL.DDP2.0.H.264-mariellisaa.mp4<br>
Format : MPEG-4<br>
Format profile : Base Media<br>
Codec ID : isom (isom/dby1/iso2/avc1/mp41)<br>
File size : 4.45 GiB<br>
Duration : 54 min 1 s<br>
Overall bit rate mode : Variable<br>
Overall bit rate : 11.8 Mb/s<br>
Collection : Shakira - Live at Glastonbury 2010<br>
Track name : Shakira - Live at Glastonbury 2010<br>
Genre : International;Music Videos and Concerts<br>
Description : Glastonbury Festival of Contemporary Performing Arts, is the second largest open-air music festival in the world. Known mainly for its musical performances, it also features attractions of dance, humor, theater, circus. Featuring Shakira.<br>
Recorded date : 2010<br>
Writing application : Lavf60.3.100<br>
Cover : Yes<br>
<br>
Video<br>
ID : 1<br>
Format : AVC<br>
Format/Info : Advanced Video Codec<br>
Format profile : High@L4<br>
Format settings : CABAC / 4 Ref Frames<br>
Format settings, CABAC : Yes<br>
Format settings, Reference frames : 4 frames<br>
Codec ID : avc1<br>
Codec ID/Info : Advanced Video Coding<br>
Duration : 54 min 1 s<br>
Duration_LastFrame : -30 ms<br>
Bit rate : 11.6 Mb/s<br>
Width : 1 920 pixels<br>
Height : 1 080 pixels<br>
Display aspect ratio : 16:9<br>
Frame rate mode : Constant<br>
Frame rate : 25.000 FPS<br>
Color space : YUV<br>
Chroma subsampling : 4:2:0<br>
Bit depth : 8 bits<br>
Scan type : Progressive<br>
Bits/(Pixel*Frame) : 0.223<br>
Stream size : 4.36 GiB (98%)<br>
Color range : Limited<br>
Color primaries : BT.709<br>
Transfer characteristics : BT.709<br>
Matrix coefficients : BT.709<br>
Codec configuration box : avcC<br>
<br>
Audio<br>
ID : 3<br>
Format : E-AC-3<br>
Format/Info : Enhanced AC-3<br>
Commercial name : Dolby Digital Plus<br>
Codec ID : ec-3<br>
Duration : 54 min 1 s<br>
Bit rate mode : Constant<br>
Bit rate : 224 kb/s<br>
Channel(s) : 2 channels<br>
Channel layout : L R<br>
Sampling rate : 48.0 kHz<br>
Frame rate : 31.250 FPS (1536 SPF)<br>
Compression mode : Lossy<br>
Stream size : 86.5 MiB (2%)<br>
Language : English<br>
Service kind : Complete Main<br>
Default : Yes<br>
Alternate group : 1<br>
<br>
Text<br>
ID : 4<br>
Format : Timed Text<br>
Muxing mode : sbtl<br>
Codec ID : tx3g<br>
Duration : 53 min 54 s<br>
Bit rate mode : Variable<br>
Bit rate : 68 b/s<br>
Frame rate : 0.505 FPS<br>
Stream size : 26.7 KiB (0%)<br>
Title : English [CC]<br>
Language : English<br>
Default : Yes<br>
Forced : No<br>
Alternate group : 3<br>
<br>
<br>
</span></div>
</div> <br>
<div style="text-align: center"><span style="font-family: 'Times New Roman'"><br>
<div class="bbCodeBlock bbCodeVfcHH HiddenContent">
<div class="attribution type">Hidden Content:</div>
<blockquote>You must either reply or click 'Like' to see the hidden information contained here.</blockquote>
</div>Ripped: by me</span>​</div>
<div class="messageTextEndMarker">&nbsp;</div>
</blockquote>
</article>]]></description>
                <author><![CDATA[mariellisaa]]></author>
                </item>

                </channel></rss>